<?xml version="1.0" encoding="UTF-8"?>
<svg xmlns="http://www.w3.org/2000/svg" xmlns:xlink="http://www.w3.org/1999/xlink" width="44px" height="32px" viewBox="0 0 43 32" version="1.1">
<g id="surface1">
<path style=" stroke:none;fill-rule:nonzero;fill:rgb(0%,0%,0%);fill-opacity:1;" d="M 21 1.410156 C 21 2.140625 21.226562 2.777344 21.453125 2.777344 C 21.722656 2.777344 21.902344 2.140625 21.902344 1.410156 C 21.902344 0.632812 21.722656 0.0429688 21.453125 0.0429688 C 21.226562 0.0429688 21 0.632812 21 1.410156 Z M 21 1.410156 "/>
<path style=" stroke:none;fill-rule:nonzero;fill:rgb(0%,0%,0%);fill-opacity:1;" d="M 9.355469 4.007812 C 9.039062 4.144531 8.042969 5.695312 7.140625 7.472656 C 6.285156 9.296875 5.472656 10.847656 5.382812 10.9375 C 5.289062 11.03125 4.839844 10.800781 4.386719 10.390625 C 3.214844 9.296875 0.820312 9.390625 0.234375 10.527344 C -0.308594 11.578125 -0.0351562 11.757812 2.402344 11.988281 L 3.847656 12.125 L 2.671875 13.765625 L 1.5 15.453125 L 1.90625 21.746094 L 2.265625 28.082031 L 5.335938 28.21875 C 7.820312 28.308594 8.359375 28.21875 8.359375 27.625 C 8.359375 27.035156 9.128906 26.941406 13.328125 26.941406 C 17.433594 26.941406 18.292969 26.804688 18.292969 26.257812 C 18.292969 25.710938 17.660156 25.574219 15.132812 25.574219 L 11.972656 25.574219 L 11.972656 21.925781 L 18.292969 21.925781 L 18.292969 11.03125 L 12.46875 10.894531 L 6.601562 10.757812 L 8.042969 7.882812 L 9.445312 5.058594 L 13.867188 5.058594 C 17.480469 5.058594 18.292969 4.921875 18.292969 4.375 C 18.292969 3.828125 17.523438 3.691406 14.140625 3.734375 C 11.835938 3.734375 9.667969 3.871094 9.355469 4.007812 Z M 9.355469 16.730469 C 11.703125 17.503906 12.648438 18.371094 12.242188 19.417969 C 12.0625 19.964844 11.203125 20.101562 8.449219 20.101562 C 4.613281 20.101562 3.847656 19.738281 3.847656 17.824219 C 3.847656 15.453125 4.75 15.269531 9.355469 16.730469 Z M 9.355469 16.730469 "/>
<path style=" stroke:none;fill-rule:nonzero;fill:rgb(0%,0%,0%);fill-opacity:1;" d="M 24.476562 4.007812 C 23.621094 4.828125 24.566406 5.058594 28.8125 5.058594 L 33.460938 5.058594 L 34.90625 8.019531 L 36.351562 10.984375 L 24.613281 10.984375 L 24.613281 21.882812 L 27.683594 22.019531 L 30.707031 22.15625 L 30.707031 25.347656 L 27.683594 25.484375 C 25.335938 25.574219 24.613281 25.757812 24.613281 26.257812 C 24.613281 26.804688 25.515625 26.941406 29.578125 26.941406 C 33.777344 26.941406 34.542969 27.035156 34.542969 27.625 C 34.542969 28.21875 35.085938 28.308594 37.613281 28.21875 L 40.640625 28.082031 L 41 21.609375 L 41.40625 15.132812 L 40.1875 13.492188 L 38.96875 11.898438 L 40.773438 11.898438 C 42.761719 11.898438 43.300781 11.484375 42.851562 10.347656 C 42.488281 9.390625 39.375 9.34375 38.609375 10.300781 C 37.839844 11.257812 37.433594 10.847656 35.671875 7.382812 C 34.816406 5.648438 33.820312 4.144531 33.414062 3.964844 C 32.421875 3.597656 24.839844 3.597656 24.476562 4.007812 Z M 38.699219 16.683594 C 39.058594 17.550781 39.058594 18.097656 38.699219 18.964844 C 38.199219 20.058594 37.976562 20.101562 34.589844 20.101562 C 31.699219 20.101562 30.976562 19.964844 30.753906 19.375 C 30.570312 18.964844 30.707031 18.371094 30.976562 18.007812 C 31.519531 17.367188 35.492188 15.953125 37.839844 15.589844 C 38.019531 15.589844 38.425781 16.046875 38.699219 16.683594 Z M 38.699219 16.683594 "/>
<path style=" stroke:none;fill-rule:nonzero;fill:rgb(0%,0%,0%);fill-opacity:1;" d="M 21 6.195312 C 21 6.835938 21.226562 7.335938 21.453125 7.335938 C 21.722656 7.335938 21.902344 6.835938 21.902344 6.195312 C 21.902344 5.558594 21.722656 5.058594 21.453125 5.058594 C 21.226562 5.058594 21 5.558594 21 6.195312 Z M 21 6.195312 "/>
<path style=" stroke:none;fill-rule:nonzero;fill:rgb(0%,0%,0%);fill-opacity:1;" d="M 21 11.210938 C 21 11.851562 21.226562 12.351562 21.453125 12.351562 C 21.722656 12.351562 21.902344 11.851562 21.902344 11.210938 C 21.902344 10.574219 21.722656 10.074219 21.453125 10.074219 C 21.226562 10.074219 21 10.574219 21 11.210938 Z M 21 11.210938 "/>
<path style=" stroke:none;fill-rule:nonzero;fill:rgb(0%,0%,0%);fill-opacity:1;" d="M 21 16 C 21 16.5 21.226562 16.910156 21.453125 16.910156 C 21.722656 16.910156 21.902344 16.5 21.902344 16 C 21.902344 15.5 21.722656 15.089844 21.453125 15.089844 C 21.226562 15.089844 21 15.5 21 16 Z M 21 16 "/>
<path style=" stroke:none;fill-rule:nonzero;fill:rgb(0%,0%,0%);fill-opacity:1;" d="M 21 20.789062 C 21 21.425781 21.226562 21.925781 21.453125 21.925781 C 21.722656 21.925781 21.902344 21.425781 21.902344 20.789062 C 21.902344 20.148438 21.722656 19.648438 21.453125 19.648438 C 21.226562 19.648438 21 20.148438 21 20.789062 Z M 21 20.789062 "/>
<path style=" stroke:none;fill-rule:nonzero;fill:rgb(0%,0%,0%);fill-opacity:1;" d="M 21 25.804688 C 21 26.441406 21.226562 26.941406 21.453125 26.941406 C 21.722656 26.941406 21.902344 26.441406 21.902344 25.804688 C 21.902344 25.164062 21.722656 24.664062 21.453125 24.664062 C 21.226562 24.664062 21 25.164062 21 25.804688 Z M 21 25.804688 "/>
<path style=" stroke:none;fill-rule:nonzero;fill:rgb(0%,0%,0%);fill-opacity:1;" d="M 21 30.589844 C 21 31.320312 21.226562 31.957031 21.453125 31.957031 C 21.722656 31.957031 21.902344 31.320312 21.902344 30.589844 C 21.902344 29.816406 21.722656 29.222656 21.453125 29.222656 C 21.226562 29.222656 21 29.816406 21 30.589844 Z M 21 30.589844 "/>
</g>
</svg>
