<?xml version="1.0" standalone="no"?>
<!DOCTYPE svg PUBLIC "-//W3C//DTD SVG 20010904//EN"
 "http://www.w3.org/TR/2001/REC-SVG-20010904/DTD/svg10.dtd">
<svg version="1.0" xmlns="http://www.w3.org/2000/svg"
 width="122.000000" height="122.000000" viewBox="0 0 122.000000 122.000000"
 preserveAspectRatio="xMidYMid meet">

<g transform="translate(0.000000,122.000000) scale(0.100000,-0.100000)"
fill="#000000" stroke="none">
<path d="M600 930 c0 -16 5 -30 10 -30 6 0 10 14 10 30 0 17 -4 30 -10 30 -5
0 -10 -13 -10 -30z"/>
<path d="M342 873 c-7 -3 -29 -37 -49 -76 -19 -40 -37 -74 -39 -76 -2 -2 -12
3 -22 12 -26 24 -79 22 -92 -3 -12 -23 -6 -27 48 -32 l32 -3 -26 -36 -26 -37
9 -138 8 -139 68 -3 c55 -2 67 0 67 13 0 13 17 15 110 15 91 0 110 3 110 15 0
12 -14 15 -70 15 l-70 0 0 40 0 40 70 0 70 0 0 120 0 119 -129 3 -130 3 32 63
31 62 98 0 c80 0 98 3 98 15 0 12 -17 15 -92 14 -51 0 -99 -3 -106 -6z m0
-279 c52 -17 73 -36 64 -59 -4 -12 -23 -15 -84 -15 -85 0 -102 8 -102 50 0 52
20 56 122 24z"/>
<path d="M677 873 c-19 -18 2 -23 96 -23 l103 0 32 -65 32 -65 -130 0 -130 0
0 -120 0 -119 68 -3 67 -3 0 -35 0 -35 -67 -3 c-52 -2 -68 -6 -68 -17 0 -12
20 -15 110 -15 93 0 110 -2 110 -15 0 -13 12 -15 68 -13 l67 3 8 142 9 142
-27 36 -27 35 40 0 c44 0 56 9 46 34 -8 21 -77 22 -94 1 -17 -21 -26 -12 -65
64 -19 38 -41 71 -50 75 -22 8 -190 8 -198 -1z m315 -278 c8 -19 8 -31 0 -50
-11 -24 -16 -25 -91 -25 -64 0 -80 3 -85 16 -4 9 -1 22 5 30 12 14 100 45 152
53 4 0 13 -10 19 -24z"/>
<path d="M600 825 c0 -14 5 -25 10 -25 6 0 10 11 10 25 0 14 -4 25 -10 25 -5
0 -10 -11 -10 -25z"/>
<path d="M600 715 c0 -14 5 -25 10 -25 6 0 10 11 10 25 0 14 -4 25 -10 25 -5
0 -10 -11 -10 -25z"/>
<path d="M600 610 c0 -11 5 -20 10 -20 6 0 10 9 10 20 0 11 -4 20 -10 20 -5 0
-10 -9 -10 -20z"/>
<path d="M600 505 c0 -14 5 -25 10 -25 6 0 10 11 10 25 0 14 -4 25 -10 25 -5
0 -10 -11 -10 -25z"/>
<path d="M600 395 c0 -14 5 -25 10 -25 6 0 10 11 10 25 0 14 -4 25 -10 25 -5
0 -10 -11 -10 -25z"/>
<path d="M600 290 c0 -16 5 -30 10 -30 6 0 10 14 10 30 0 17 -4 30 -10 30 -5
0 -10 -13 -10 -30z"/>
</g>
</svg>
